<?xml version="1.0" encoding="UTF-8"?>
<svg id="_图层_1" data-name="图层 1" xmlns="http://www.w3.org/2000/svg" xmlns:xlink="http://www.w3.org/1999/xlink" viewBox="0 0 188 46">
  <defs>
    <style>
      .cls-1, .cls-2 {
        fill: none;
      }

      .cls-3 {
        fill: #fc6719;
      }

      .cls-2 {
        clip-rule: evenodd;
      }

      .cls-4 {
        clip-path: url(#clippath-8);
      }
    </style>
    <clipPath id="clippath">
      <path class="cls-2" d="M-487.09-614.5H-131.75c1.24,0,2.25,.9,2.25,2v36c0,1.1-1.01,2-2.25,2H-487.09c-1.24,0-2.25-.9-2.25-2v-36c0-1.1,1.01-2,2.25-2Z"/>
    </clipPath>
    <clipPath id="clippath-2">
      <path class="cls-2" d="M-487.09-550.5H-131.75c1.24,0,2.25,.9,2.25,2v36c0,1.1-1.01,2-2.25,2H-487.09c-1.24,0-2.25-.9-2.25-2v-36c0-1.1,1.01-2,2.25-2Z"/>
    </clipPath>
    <clipPath id="clippath-4">
      <path class="cls-1" d="M-473.92-600c-1.62,0-2.94,1.34-2.94,3s1.32,3,2.94,3,2.94-1.34,2.94-3-1.32-3-2.94-3Zm0-1c2.18,0,3.94,1.79,3.94,4,0,1.36-.67,2.57-1.7,3.29,2.49,.78,4.3,3.07,4.3,5.77h-1.12v-.15c-.05-2.69-2.29-4.86-5.06-4.86-.05,0-.1,0-.15-.02-.04,.02-.09,.02-.15,.02-2.77,0-5.01,2.17-5.06,4.86v.15h-1.13c0-2.6,1.67-4.82,4.02-5.68-1.1-.71-1.83-1.96-1.83-3.38,0-2.21,1.76-4,3.94-4Z"/>
    </clipPath>
    <clipPath id="clippath-6">
      <path class="cls-1" d="M-473.1-529v3h-1v-3h1Zm-.5-6.5c-1.63,0-2.96,1.3-3,2.92v.08s0,.5,0,.5h6v-.5c0-1.66-1.34-3-3-3Zm4.5,4.5h-.5s0,0,0,0h-1s-6,0-6,0h0s-1,0-1,0h0s-.75,0-.75,0v7h9.25v-7Zm-4.5-5.5c.66,0,1.28,.16,1.83,.44l.13,.07c1.24,.69,2.02,1.99,2.04,3.41v.08s0,.5,0,.5h1c.25,0,.47,.19,.5,.44v.06s0,8,0,8c0,.28-.22,.5-.5,.5h-10.25c-.28,0-.5-.22-.5-.5v-8c0-.28,.22-.5,.5-.5h1.25v-.5c0-1.45,.78-2.78,2.04-3.49l.13-.07c.56-.29,1.19-.44,1.83-.44Z"/>
    </clipPath>
    <clipPath id="clippath-8">
      <path class="cls-3" d="M-487.25-411H-131.91c1.24,0,2.25,.9,2.25,2v36c0,1.1-1.01,2-2.25,2H-487.25c-1.24,0-2.25-.9-2.25-2v-36c0-1.1,1.01-2,2.25-2Z"/>
    </clipPath>
  </defs>
  <g>
    <polygon class="cls-3" points="99.71 6.94 99.71 30.53 104.79 30.53 104.79 14.85 118.47 21.81 132.16 14.85 132.16 30.53 137.24 30.53 137.24 6.94 118.47 16.83 99.71 6.94"/>
    <path class="cls-3" d="M50.94,11.07l3.97,1.15v12.59l-3.97,1.06v5.29l38.81-12.41L50.94,6.4v4.67Zm26.36,7.66l-17.34,4.72V13.69l17.34,5.04Z"/>
    <path class="cls-3" d="M179.85,8.21v10.71c0,4.97-5.85,7.49-12.57,7.49s-12.55-2.51-12.55-7.49V8.21h-5.29v11.16c0,6.11,7.94,11.06,17.78,11.06h0c9.81,0,17.78-4.95,17.78-11.06V8.21h-5.15Z"/>
    <polygon class="cls-3" points="22.23 16.72 22.23 16.73 10.23 6.55 3.11 6.55 19.54 20.49 19.54 30.93 24.9 30.93 24.9 20.5 41.33 6.55 34.21 6.55 22.23 16.72"/>
  </g>
  <g>
    <path class="cls-3" d="M-487.25-411H-131.91c1.24,0,2.25,.9,2.25,2v36c0,1.1-1.01,2-2.25,2H-487.25c-1.24,0-2.25-.9-2.25-2v-36c0-1.1,1.01-2,2.25-2Z"/>
    <g class="cls-4">
      <rect class="cls-3" x="-1976.07" y="-995" width="2159.01" height="1080"/>
    </g>
  </g>
</svg>