<?xml version="1.0" standalone="no"?><!DOCTYPE svg PUBLIC "-//W3C//DTD SVG 1.1//EN" "http://www.w3.org/Graphics/SVG/1.1/DTD/svg11.dtd"><svg t="1656386866779" class="icon" viewBox="0 0 1024 1024" version="1.1" xmlns="http://www.w3.org/2000/svg" p-id="5621" width="16" height="16" xmlns:xlink="http://www.w3.org/1999/xlink"><defs><style type="text/css">@font-face { font-family: feedback-iconfont; src: url("//at.alicdn.com/t/font_1031158_u69w8yhxdu.woff2?t=1630033759944") format("woff2"), url("//at.alicdn.com/t/font_1031158_u69w8yhxdu.woff?t=1630033759944") format("woff"), url("//at.alicdn.com/t/font_1031158_u69w8yhxdu.ttf?t=1630033759944") format("truetype"); }
</style></defs><path d="M512 128c70.4 0 128 57.6 128 128v304c38.4 35.2 64 86.4 64 144 0 105.6-86.4 192-192 192s-192-86.4-192-192c0-57.6 25.6-108.8 64-144V256c0-70.4 57.6-128 128-128z m0 64c-35.2 0-60.8 25.6-64 60.8v336l-22.4 19.2c-25.6 25.6-41.6 57.6-41.6 96 0 70.4 57.6 128 128 128s128-57.6 128-128c0-35.2-12.8-67.2-38.4-89.6l-3.2-6.4-22.4-19.2V256c0-35.2-28.8-64-64-64z m224 256c19.2 0 32 12.8 32 32 0 16-12.8 28.8-28.8 32H704c-19.2 0-32-12.8-32-32 0-16 12.8-28.8 28.8-32H736z m0-128c19.2 0 32 12.8 32 32 0 16-12.8 28.8-28.8 32H704c-19.2 0-32-12.8-32-32 0-16 12.8-28.8 28.8-32H736z m0-128c19.2 0 32 12.8 32 32 0 16-12.8 28.8-28.8 32H704c-19.2 0-32-12.8-32-32 0-16 12.8-28.8 28.8-32H736z" fill="#221814" p-id="5622"></path><path d="M512 384c16 0 28.8 12.8 32 28.8v217.6c28.8 12.8 48 41.6 48 73.6 0 44.8-35.2 80-80 80s-80-35.2-80-80c0-32 19.2-60.8 48-73.6v-217.6c3.2-16 16-28.8 32-28.8z" fill="#C70019" p-id="5623"></path></svg>